<mxfile host="www.draw.io" modified="2021-01-03T06:00:51.678Z" agent="5.0 (Macintosh; Intel Mac OS X 10_15_6) AppleWebKit/537.36 (KHTML, like Gecko) Chrome/87.0.4280.88 Safari/537.36" etag="Hyf60GGQAehcG-rvW7XL" version="14.1.4" type="github">
  <diagram id="b6CqQ3HhdEuH7oznCEck" name="Page-1">
    <mxGraphModel dx="910" dy="591" grid="1" gridSize="10" guides="1" tooltips="1" connect="1" arrows="1" fold="1" page="1" pageScale="1" pageWidth="827" pageHeight="1169" math="0" shadow="0">
      <root>
        <mxCell id="0" />
        <mxCell id="1" parent="0" />
        <mxCell id="FJm98CGjiNE1Hh2P1TUQ-2" value="&lt;span&gt;SndMgs &amp;amp; Smsg1&lt;br&gt;(s0)&lt;br&gt;&lt;/span&gt;" style="ellipse;whiteSpace=wrap;html=1;" vertex="1" parent="1">
          <mxGeometry x="30" y="70" width="120" height="80" as="geometry" />
        </mxCell>
        <mxCell id="FJm98CGjiNE1Hh2P1TUQ-3" value="&lt;span&gt;RcvMgs &amp;amp; Rmsg1&lt;br&gt;(s2)&lt;br&gt;&lt;/span&gt;" style="ellipse;whiteSpace=wrap;html=1;" vertex="1" parent="1">
          <mxGeometry x="310" y="70" width="120" height="80" as="geometry" />
        </mxCell>
        <mxCell id="FJm98CGjiNE1Hh2P1TUQ-4" value="&lt;span&gt;SndMgs &amp;amp; Smsg0&lt;br&gt;(s1)&lt;br&gt;&lt;/span&gt;" style="ellipse;whiteSpace=wrap;html=1;" vertex="1" parent="1">
          <mxGeometry x="30" y="230" width="120" height="80" as="geometry" />
        </mxCell>
        <mxCell id="FJm98CGjiNE1Hh2P1TUQ-5" value="&lt;span&gt;RcvMgs &amp;amp; Rmsg0&lt;br&gt;(s3)&lt;br&gt;&lt;/span&gt;" style="ellipse;whiteSpace=wrap;html=1;" vertex="1" parent="1">
          <mxGeometry x="310" y="230" width="120" height="80" as="geometry" />
        </mxCell>
        <mxCell id="FJm98CGjiNE1Hh2P1TUQ-6" value="" style="endArrow=classic;html=1;exitX=1;exitY=0.5;exitDx=0;exitDy=0;entryX=0;entryY=0.5;entryDx=0;entryDy=0;" edge="1" parent="1" source="FJm98CGjiNE1Hh2P1TUQ-2" target="FJm98CGjiNE1Hh2P1TUQ-3">
          <mxGeometry width="50" height="50" relative="1" as="geometry">
            <mxPoint x="20" y="420" as="sourcePoint" />
            <mxPoint x="70" y="370" as="targetPoint" />
          </mxGeometry>
        </mxCell>
        <mxCell id="FJm98CGjiNE1Hh2P1TUQ-7" value="" style="endArrow=classic;html=1;exitX=0;exitY=1;exitDx=0;exitDy=0;entryX=1;entryY=0;entryDx=0;entryDy=0;" edge="1" parent="1" source="FJm98CGjiNE1Hh2P1TUQ-3" target="FJm98CGjiNE1Hh2P1TUQ-4">
          <mxGeometry width="50" height="50" relative="1" as="geometry">
            <mxPoint x="110" y="400" as="sourcePoint" />
            <mxPoint x="160" y="350" as="targetPoint" />
          </mxGeometry>
        </mxCell>
        <mxCell id="FJm98CGjiNE1Hh2P1TUQ-8" value="" style="endArrow=classic;html=1;exitX=1;exitY=0.5;exitDx=0;exitDy=0;entryX=0;entryY=0.5;entryDx=0;entryDy=0;" edge="1" parent="1" source="FJm98CGjiNE1Hh2P1TUQ-4" target="FJm98CGjiNE1Hh2P1TUQ-5">
          <mxGeometry width="50" height="50" relative="1" as="geometry">
            <mxPoint x="70" y="400" as="sourcePoint" />
            <mxPoint x="300" y="270" as="targetPoint" />
          </mxGeometry>
        </mxCell>
        <mxCell id="FJm98CGjiNE1Hh2P1TUQ-9" value="" style="endArrow=classic;html=1;exitX=0;exitY=0;exitDx=0;exitDy=0;entryX=1;entryY=1;entryDx=0;entryDy=0;" edge="1" parent="1" source="FJm98CGjiNE1Hh2P1TUQ-5" target="FJm98CGjiNE1Hh2P1TUQ-2">
          <mxGeometry width="50" height="50" relative="1" as="geometry">
            <mxPoint x="190" y="420" as="sourcePoint" />
            <mxPoint x="240" y="370" as="targetPoint" />
          </mxGeometry>
        </mxCell>
        <mxCell id="FJm98CGjiNE1Hh2P1TUQ-10" value="" style="endArrow=classic;html=1;exitX=1;exitY=0;exitDx=0;exitDy=0;entryX=0;entryY=0;entryDx=0;entryDy=0;" edge="1" parent="1" source="FJm98CGjiNE1Hh2P1TUQ-2" target="FJm98CGjiNE1Hh2P1TUQ-2">
          <mxGeometry width="50" height="50" relative="1" as="geometry">
            <mxPoint y="50" as="sourcePoint" />
            <mxPoint x="50" as="targetPoint" />
            <Array as="points">
              <mxPoint x="90" y="20" />
            </Array>
          </mxGeometry>
        </mxCell>
        <mxCell id="FJm98CGjiNE1Hh2P1TUQ-11" value="" style="endArrow=classic;html=1;entryX=1;entryY=1;entryDx=0;entryDy=0;exitX=0.092;exitY=0.8;exitDx=0;exitDy=0;exitPerimeter=0;" edge="1" parent="1" source="FJm98CGjiNE1Hh2P1TUQ-5" target="FJm98CGjiNE1Hh2P1TUQ-5">
          <mxGeometry width="50" height="50" relative="1" as="geometry">
            <mxPoint x="230" y="250" as="sourcePoint" />
            <mxPoint x="280" y="270" as="targetPoint" />
            <Array as="points">
              <mxPoint x="370" y="360" />
            </Array>
          </mxGeometry>
        </mxCell>
        <mxCell id="FJm98CGjiNE1Hh2P1TUQ-12" value="" style="endArrow=classic;html=1;exitX=1;exitY=1;exitDx=0;exitDy=0;entryX=0;entryY=1;entryDx=0;entryDy=0;" edge="1" parent="1" source="FJm98CGjiNE1Hh2P1TUQ-4" target="FJm98CGjiNE1Hh2P1TUQ-4">
          <mxGeometry width="50" height="50" relative="1" as="geometry">
            <mxPoint x="144.85640687119297" y="251.7157287525381" as="sourcePoint" />
            <mxPoint x="70" y="400" as="targetPoint" />
            <Array as="points">
              <mxPoint x="80" y="360" />
            </Array>
          </mxGeometry>
        </mxCell>
        <mxCell id="FJm98CGjiNE1Hh2P1TUQ-13" value="" style="endArrow=classic;html=1;exitX=0;exitY=0;exitDx=0;exitDy=0;entryX=1;entryY=0;entryDx=0;entryDy=0;" edge="1" parent="1" source="FJm98CGjiNE1Hh2P1TUQ-3" target="FJm98CGjiNE1Hh2P1TUQ-3">
          <mxGeometry width="50" height="50" relative="1" as="geometry">
            <mxPoint x="162.42640687119297" y="111.7157287525381" as="sourcePoint" />
            <mxPoint x="77.57359312880715" y="111.7157287525381" as="targetPoint" />
            <Array as="points">
              <mxPoint x="370" y="20" />
            </Array>
          </mxGeometry>
        </mxCell>
      </root>
    </mxGraphModel>
  </diagram>
</mxfile>
